<svg width="50" height="50" viewBox="0 0 50 50" fill="none" xmlns="http://www.w3.org/2000/svg">
<path d="M30.738 14.4067H19.262C18.6244 14.4067 17.993 14.5323 17.404 14.7763C16.8149 15.0203 16.2796 15.3779 15.8288 15.8288C15.3779 16.2796 15.0203 16.8149 14.7763 17.404C14.5323 17.993 14.4067 18.6244 14.4067 19.262V30.738C14.4067 32.0257 14.9183 33.2606 15.8288 34.1712C16.2797 34.622 16.8149 34.9797 17.404 35.2237C17.993 35.4677 18.6244 35.5933 19.262 35.5933H30.738C32.0257 35.5932 33.2606 35.0817 34.1711 34.1712C35.0816 33.2606 35.5932 32.0257 35.5932 30.738V19.262C35.5932 18.6244 35.4676 17.9931 35.2236 17.404C34.9796 16.8149 34.622 16.2797 34.1712 15.8288C33.7203 15.378 33.1851 15.0203 32.596 14.7763C32.0069 14.5323 31.3756 14.4067 30.738 14.4067ZM25 31.6788C23.6791 31.6788 22.3878 31.2871 21.2895 30.5532C20.1911 29.8194 19.3351 28.7763 18.8296 27.5559C18.3241 26.3355 18.1918 24.9926 18.4495 23.697C18.7072 22.4015 19.3433 21.2114 20.2774 20.2774C21.2114 19.3433 22.4015 18.7072 23.697 18.4495C24.9926 18.1918 26.3355 18.3241 27.5559 18.8296C28.7763 19.3351 29.8194 20.1911 30.5532 21.2895C31.2871 22.3878 31.6788 23.6791 31.6788 25C31.6788 25.8771 31.5061 26.7456 31.1704 27.5559C30.8348 28.3662 30.3428 29.1024 29.7226 29.7226C29.1024 30.3428 28.3662 30.8348 27.5559 31.1704C26.7456 31.5061 25.8771 31.6788 25 31.6788ZM31.9572 19.6855C31.643 19.6856 31.3357 19.5924 31.0744 19.4178C30.8131 19.2432 30.6094 18.9951 30.4891 18.7047C30.3689 18.4144 30.3374 18.0949 30.3987 17.7867C30.46 17.4784 30.6113 17.1953 30.8335 16.973C31.0557 16.7508 31.3389 16.5995 31.6471 16.5382C31.9553 16.4768 32.2748 16.5083 32.5652 16.6286C32.8555 16.7488 33.1037 16.9525 33.2783 17.2138C33.4529 17.4751 33.5461 17.7823 33.5461 18.0966C33.5461 18.518 33.3787 18.9221 33.0807 19.2201C32.7828 19.5181 32.3786 19.6855 31.9572 19.6855Z" fill="white"/>
<path d="M25 20.6587C24.1414 20.6587 23.302 20.9133 22.5881 21.3903C21.8742 21.8674 21.3177 22.5454 20.9892 23.3387C20.6606 24.1319 20.5746 25.0048 20.7421 25.8469C20.9096 26.6891 21.3231 27.4626 21.9302 28.0698C22.5374 28.6769 23.3109 29.0904 24.1531 29.2579C24.9952 29.4254 25.8681 29.3394 26.6614 29.0108C27.4546 28.6823 28.1326 28.1258 28.6097 27.4119C29.0867 26.698 29.3413 25.8586 29.3413 25C29.3413 23.8486 28.8839 22.7444 28.0698 21.9302C27.2556 21.1161 26.1514 20.6587 25 20.6587Z" fill="white"/>
<path d="M25 0C11.1929 0 0 11.1929 0 25C0 38.8071 11.1929 50 25 50C38.8071 50 50 38.8071 50 25C50 11.1929 38.8071 0 25 0ZM38.0208 30.5176C38.0207 32.5075 37.2302 34.416 35.8231 35.8231C34.416 37.2302 32.5075 38.0207 30.5176 38.0208H19.4824C17.4925 38.0207 15.584 37.2302 14.1769 35.8231C12.7698 34.416 11.9792 32.5075 11.9791 30.5176V19.4824C11.9792 17.4925 12.7697 15.584 14.1769 14.1769C15.584 12.7698 17.4925 11.9793 19.4824 11.9792H30.5176C32.5075 11.9793 34.416 12.7698 35.8231 14.1769C37.2302 15.584 38.0207 17.4925 38.0208 19.4824V30.5176Z" fill="white"/>
</svg>
