<svg width="50" height="50" viewBox="0 0 50 50" fill="none" xmlns="http://www.w3.org/2000/svg">
<path fill-rule="evenodd" clip-rule="evenodd" d="M50 25C50 38.8071 38.8071 50 25 50C11.1929 50 0 38.8071 0 25C0 11.1929 11.1929 0 25 0C38.8071 0 50 11.1929 50 25ZM38.6197 14.9601C38.225 14.382 37.5612 14 36.8121 14H13.1879C12.4545 14 11.806 14.3684 11.4083 14.9264L25.0433 26.2956L38.6197 14.9601ZM11 33.0059V16.8639L25.0433 28.5745L39 16.9221V33.0059C39 34.2093 38.0154 35.1938 36.8121 35.1938H13.1879C11.9846 35.1938 11 34.2093 11 33.0059Z" fill="white"/>
</svg>
