<svg width="50" height="50" viewBox="0 0 50 50" fill="none" xmlns="http://www.w3.org/2000/svg">
<path d="M25 0C11.1929 0 0 11.1929 0 25C0 38.8071 11.1929 50 25 50C38.8071 50 50 38.8071 50 25C50 11.1929 38.8071 0 25 0ZM17.9136 37.3698H12.3419V19.888H17.9136V37.3698ZM15.1277 17.5984C14.5077 17.5984 13.9017 17.4146 13.3862 17.0701C12.8706 16.7257 12.4689 16.2361 12.2316 15.6633C11.9943 15.0905 11.9322 14.4602 12.0532 13.8521C12.1742 13.244 12.4727 12.6855 12.9111 12.2471C13.3495 11.8087 13.9081 11.5101 14.5162 11.3891C15.1243 11.2682 15.7546 11.3303 16.3274 11.5675C16.9002 11.8048 17.3897 12.2066 17.7342 12.7221C18.0786 13.2376 18.2625 13.8437 18.2625 14.4637C18.2625 15.2951 17.9322 16.0924 17.3443 16.6803C16.7565 17.2682 15.9591 17.5984 15.1277 17.5984ZM38.0078 37.3698H32.5391V27.811C32.5391 27.3254 32.6157 24.1051 29.881 24.1051C29.395 24.093 28.9132 24.1983 28.4767 24.4121C28.0401 24.6259 27.6615 24.9419 27.373 25.3332C26.8708 26.0034 26.6025 26.82 26.6096 27.6574V37.3694H21.1475V19.888H26.3443V22.3415C27.5882 20.4332 29.1558 19.7347 30.6977 19.4535C33.4347 18.9545 38.0073 20.6207 38.0073 25.5961L38.0078 37.3698Z" fill="white"/>
</svg>
