<svg width="172" height="31" viewBox="0 0 172 31" fill="none" xmlns="http://www.w3.org/2000/svg">
<path fill-rule="evenodd" clip-rule="evenodd" d="M17.64 25.856C17.376 25.928 16.956 26 16.38 26.072C15.828 26.144 15.276 26.18 14.724 26.18C14.172 26.18 13.68 26.132 13.248 26.036C12.84 25.964 12.492 25.82 12.204 25.604C11.916 25.388 11.7 25.088 11.556 24.704C11.412 24.32 11.34 23.816 11.34 23.192V4.18399C11.604 4.13599 12.024 4.07599 12.6 4.00399C13.176 3.90799 13.728 3.85999 14.256 3.85999C14.808 3.85999 15.288 3.90799 15.696 4.00399C16.128 4.07599 16.488 4.21999 16.776 4.43599C17.064 4.65199 17.28 4.95199 17.424 5.33599C17.568 5.71999 17.64 6.22399 17.64 6.84799V25.856ZM32.9288 14.912C32.9288 14.168 32.7128 13.628 32.2808 13.292C31.8728 12.932 31.3088 12.752 30.5888 12.752C30.1088 12.752 29.6288 12.812 29.1488 12.932C28.6928 13.052 28.2968 13.232 27.9608 13.472V25.964C27.7208 26.036 27.3368 26.108 26.8088 26.18C26.3048 26.252 25.7768 26.288 25.2248 26.288C24.6968 26.288 24.2168 26.252 23.7848 26.18C23.3768 26.108 23.0288 25.964 22.7408 25.748C22.4528 25.532 22.2248 25.244 22.0568 24.884C21.9128 24.5 21.8408 24.008 21.8408 23.408V12.608C21.8408 11.96 21.9728 11.432 22.2368 11.024C22.5248 10.616 22.9088 10.244 23.3888 9.90799C24.2048 9.33199 25.2248 8.86399 26.4488 8.50399C27.6968 8.14399 29.0768 7.96399 30.5888 7.96399C33.3008 7.96399 35.3888 8.56399 36.8528 9.76399C38.3168 10.94 39.0488 12.584 39.0488 14.696V25.964C38.8088 26.036 38.4248 26.108 37.8968 26.18C37.3928 26.252 36.8648 26.288 36.3128 26.288C35.7848 26.288 35.3048 26.252 34.8728 26.18C34.4648 26.108 34.1168 25.964 33.8288 25.748C33.5408 25.532 33.3128 25.244 33.1448 24.884C33.0008 24.5 32.9288 24.008 32.9288 23.408V14.912ZM52.693 12.788C52.093 12.788 51.517 12.884 50.965 13.076C50.437 13.268 49.969 13.556 49.561 13.94C49.177 14.3 48.865 14.756 48.625 15.308C48.385 15.86 48.265 16.508 48.265 17.252C48.265 18.74 48.685 19.856 49.525 20.6C50.389 21.344 51.433 21.716 52.657 21.716C53.377 21.716 54.001 21.632 54.529 21.464C55.057 21.296 55.525 21.116 55.933 20.924C56.413 21.26 56.773 21.632 57.013 22.04C57.253 22.424 57.373 22.892 57.373 23.444C57.373 24.428 56.905 25.196 55.969 25.748C55.033 26.276 53.737 26.54 52.081 26.54C50.569 26.54 49.201 26.324 47.977 25.892C46.753 25.436 45.697 24.812 44.809 24.02C43.945 23.204 43.273 22.232 42.793 21.104C42.313 19.976 42.073 18.728 42.073 17.36C42.073 15.776 42.325 14.396 42.829 13.22C43.357 12.02 44.065 11.036 44.953 10.268C45.841 9.49999 46.861 8.92399 48.013 8.53999C49.189 8.15599 50.425 7.96399 51.721 7.96399C53.449 7.96399 54.781 8.27599 55.717 8.89999C56.653 9.52399 57.121 10.328 57.121 11.312C57.121 11.768 57.013 12.2 56.797 12.608C56.581 12.992 56.329 13.328 56.041 13.616C55.633 13.424 55.141 13.244 54.565 13.076C53.989 12.884 53.365 12.788 52.693 12.788ZM69.167 26.576C67.751 26.576 66.431 26.384 65.207 26C64.007 25.592 62.951 24.992 62.039 24.2C61.151 23.408 60.443 22.412 59.915 21.212C59.411 20.012 59.159 18.608 59.159 17C59.159 15.416 59.411 14.06 59.915 12.932C60.443 11.78 61.127 10.844 61.967 10.124C62.807 9.37999 63.767 8.83999 64.847 8.50399C65.927 8.14399 67.031 7.96399 68.159 7.96399C69.431 7.96399 70.583 8.15599 71.615 8.53999C72.671 8.92399 73.571 9.45199 74.315 10.124C75.083 10.796 75.671 11.6 76.079 12.536C76.511 13.472 76.727 14.492 76.727 15.596C76.727 16.412 76.499 17.036 76.043 17.468C75.587 17.9 74.951 18.176 74.135 18.296L65.243 19.628C65.507 20.42 66.047 21.02 66.863 21.428C67.679 21.812 68.615 22.004 69.671 22.004C70.655 22.004 71.579 21.884 72.443 21.644C73.331 21.38 74.051 21.08 74.603 20.744C74.987 20.984 75.311 21.32 75.575 21.752C75.839 22.184 75.971 22.64 75.971 23.12C75.971 24.2 75.467 25.004 74.459 25.532C73.691 25.94 72.827 26.216 71.867 26.36C70.907 26.504 70.007 26.576 69.167 26.576ZM68.159 12.428C67.583 12.428 67.079 12.524 66.647 12.716C66.239 12.908 65.903 13.16 65.639 13.472C65.375 13.76 65.171 14.096 65.027 14.48C64.907 14.84 64.835 15.212 64.811 15.596L70.967 14.588C70.895 14.108 70.631 13.628 70.175 13.148C69.719 12.668 69.047 12.428 68.159 12.428ZM90.7608 14.912C90.7608 14.168 90.5448 13.628 90.1128 13.292C89.7048 12.932 89.1408 12.752 88.4208 12.752C87.9408 12.752 87.4608 12.812 86.9808 12.932C86.5248 13.052 86.1288 13.232 85.7928 13.472V25.964C85.5528 26.036 85.1688 26.108 84.6408 26.18C84.1368 26.252 83.6088 26.288 83.0568 26.288C82.5288 26.288 82.0488 26.252 81.6168 26.18C81.2088 26.108 80.8608 25.964 80.5728 25.748C80.2848 25.532 80.0568 25.244 79.8888 24.884C79.7448 24.5 79.6728 24.008 79.6728 23.408V12.608C79.6728 11.96 79.8048 11.432 80.0688 11.024C80.3568 10.616 80.7408 10.244 81.2208 9.90799C82.0368 9.33199 83.0568 8.86399 84.2808 8.50399C85.5288 8.14399 86.9088 7.96399 88.4208 7.96399C91.1328 7.96399 93.2208 8.56399 94.6848 9.76399C96.1488 10.94 96.8808 12.584 96.8808 14.696V25.964C96.6408 26.036 96.2568 26.108 95.7288 26.18C95.2248 26.252 94.6968 26.288 94.1448 26.288C93.6168 26.288 93.1368 26.252 92.7048 26.18C92.2968 26.108 91.9488 25.964 91.6608 25.748C91.3728 25.532 91.1448 25.244 90.9768 24.884C90.8328 24.5 90.7608 24.008 90.7608 23.408V14.912ZM106.781 19.988C106.781 20.612 106.973 21.056 107.357 21.32C107.765 21.584 108.329 21.716 109.049 21.716C109.409 21.716 109.781 21.692 110.165 21.644C110.549 21.572 110.885 21.488 111.173 21.392C111.389 21.656 111.569 21.956 111.713 22.292C111.881 22.604 111.965 22.988 111.965 23.444C111.965 24.356 111.617 25.1 110.921 25.676C110.249 26.252 109.049 26.54 107.321 26.54C105.209 26.54 103.577 26.06 102.425 25.1C101.297 24.14 100.733 22.58 100.733 20.42V5.01199C100.997 4.93999 101.369 4.86799 101.849 4.79599C102.353 4.69999 102.881 4.65199 103.433 4.65199C104.489 4.65199 105.305 4.84399 105.881 5.22799C106.481 5.58799 106.781 6.36799 106.781 7.56799V9.87199H111.497C111.641 10.136 111.773 10.472 111.893 10.88C112.037 11.264 112.109 11.696 112.109 12.176C112.109 13.016 111.917 13.628 111.533 14.012C111.173 14.372 110.681 14.552 110.057 14.552H106.781V19.988ZM114.931 3.64399C114.931 2.73199 115.231 1.96399 115.831 1.33999C116.455 0.715991 117.271 0.403992 118.279 0.403992C119.287 0.403992 120.091 0.715991 120.691 1.33999C121.315 1.96399 121.627 2.73199 121.627 3.64399C121.627 4.55599 121.315 5.32399 120.691 5.94799C120.091 6.57199 119.287 6.88399 118.279 6.88399C117.271 6.88399 116.455 6.57199 115.831 5.94799C115.231 5.32399 114.931 4.55599 114.931 3.64399ZM121.339 25.964C121.075 26.012 120.679 26.072 120.151 26.144C119.647 26.24 119.131 26.288 118.603 26.288C118.075 26.288 117.595 26.252 117.163 26.18C116.755 26.108 116.407 25.964 116.119 25.748C115.831 25.532 115.603 25.244 115.435 24.884C115.291 24.5 115.219 24.008 115.219 23.408V8.75599C115.483 8.70799 115.867 8.64799 116.371 8.57599C116.899 8.47999 117.427 8.43199 117.955 8.43199C118.483 8.43199 118.951 8.46799 119.359 8.53999C119.791 8.61199 120.151 8.75599 120.439 8.97199C120.727 9.18799 120.943 9.48799 121.087 9.87199C121.255 10.232 121.339 10.712 121.339 11.312V25.964ZM136.935 25.532C136.599 25.796 136.107 26.012 135.459 26.18C134.811 26.348 134.079 26.432 133.263 26.432C132.327 26.432 131.511 26.312 130.815 26.072C130.143 25.832 129.675 25.448 129.411 24.92C129.195 24.512 128.931 23.948 128.619 23.228C128.331 22.484 128.019 21.668 127.683 20.78C127.347 19.868 126.999 18.896 126.639 17.864C126.279 16.832 125.931 15.812 125.595 14.804C125.283 13.796 124.995 12.824 124.731 11.888C124.467 10.952 124.251 10.124 124.083 9.40399C124.419 9.06799 124.863 8.77999 125.415 8.53999C125.991 8.27599 126.615 8.14399 127.287 8.14399C128.127 8.14399 128.811 8.32399 129.339 8.68399C129.891 9.01999 130.299 9.66799 130.563 10.628L131.967 16.136C132.231 17.216 132.483 18.2 132.723 19.088C132.963 19.952 133.143 20.624 133.263 21.104H133.443C133.899 19.328 134.379 17.36 134.883 15.2C135.387 13.04 135.843 10.916 136.251 8.82799C136.659 8.61199 137.115 8.44399 137.619 8.32399C138.147 8.20399 138.651 8.14399 139.131 8.14399C139.971 8.14399 140.679 8.32399 141.255 8.68399C141.831 9.04399 142.119 9.66799 142.119 10.556C142.119 10.94 142.023 11.504 141.831 12.248C141.663 12.968 141.435 13.796 141.147 14.732C140.883 15.644 140.559 16.616 140.175 17.648C139.815 18.68 139.443 19.688 139.059 20.672C138.675 21.656 138.291 22.58 137.907 23.444C137.547 24.284 137.223 24.98 136.935 25.532ZM153.929 26.576C152.513 26.576 151.193 26.384 149.969 26C148.769 25.592 147.713 24.992 146.801 24.2C145.913 23.408 145.205 22.412 144.677 21.212C144.173 20.012 143.921 18.608 143.921 17C143.921 15.416 144.173 14.06 144.677 12.932C145.205 11.78 145.889 10.844 146.729 10.124C147.569 9.37999 148.529 8.83999 149.609 8.50399C150.689 8.14399 151.793 7.96399 152.921 7.96399C154.193 7.96399 155.345 8.15599 156.377 8.53999C157.433 8.92399 158.333 9.45199 159.077 10.124C159.845 10.796 160.433 11.6 160.841 12.536C161.273 13.472 161.489 14.492 161.489 15.596C161.489 16.412 161.261 17.036 160.805 17.468C160.349 17.9 159.713 18.176 158.897 18.296L150.005 19.628C150.269 20.42 150.809 21.02 151.625 21.428C152.441 21.812 153.377 22.004 154.433 22.004C155.417 22.004 156.341 21.884 157.205 21.644C158.093 21.38 158.813 21.08 159.365 20.744C159.749 20.984 160.073 21.32 160.337 21.752C160.601 22.184 160.733 22.64 160.733 23.12C160.733 24.2 160.229 25.004 159.221 25.532C158.453 25.94 157.589 26.216 156.629 26.36C155.669 26.504 154.769 26.576 153.929 26.576ZM152.921 12.428C152.345 12.428 151.841 12.524 151.409 12.716C151.001 12.908 150.665 13.16 150.401 13.472C150.137 13.76 149.933 14.096 149.789 14.48C149.669 14.84 149.597 15.212 149.573 15.596L155.729 14.588C155.657 14.108 155.393 13.628 154.937 13.148C154.481 12.668 153.809 12.428 152.921 12.428ZM0.589799 27.8966C0.593728 27.3446 0.61145 26.5407 0.642966 25.4849C0.674311 24.4531 0.730338 23.3255 0.811048 22.102C0.891588 20.9026 0.996212 19.6913 1.12492 18.4682C1.25346 17.2691 1.40489 16.2261 1.5792 15.3393C1.67571 15.268 1.82022 15.197 2.01273 15.1264C2.20524 15.0558 2.40966 14.9972 2.62599 14.9508C2.84233 14.9043 3.05858 14.8698 3.27475 14.8474C3.49091 14.8249 3.68299 14.8143 3.85099 14.8155C4.54697 14.8204 5.13419 14.9326 5.61264 15.152C6.06709 15.3713 6.35209 15.7933 6.46765 16.4181C6.58372 16.971 6.68573 17.8117 6.7737 18.9404C6.83767 20.0689 6.90096 21.2934 6.96356 22.6138C7.02616 23.9343 7.07685 25.2427 7.11563 26.539C7.1304 27.8352 7.13454 28.9392 7.12805 29.8512C6.64619 30.1118 6.10475 30.3119 5.50374 30.4516C4.87856 30.6152 4.26598 30.6948 3.66599 30.6906C2.68202 30.6836 1.92766 30.4502 1.40292 29.9904C0.854176 29.5305 0.583137 28.8326 0.589799 27.8966ZM7.34277 9.80021C7.33577 10.7842 7.03006 11.586 6.42563 12.2057C5.79703 12.8493 4.94275 13.1672 3.86278 13.1595C2.7828 13.1518 1.94513 12.8219 1.34976 12.1696C0.730215 11.5412 0.423945 10.735 0.430949 9.75101C0.437953 8.76704 0.755753 7.95328 1.38435 7.30974C1.98878 6.69002 2.83098 6.38401 3.91095 6.3917C4.99092 6.39938 5.84068 6.71744 6.46022 7.34587C7.05559 7.99812 7.34978 8.81623 7.34277 9.80021ZM171.496 7.53199C171.52 6.47599 171.532 5.67199 171.532 5.11999C171.532 4.18399 171.256 3.48799 170.704 3.03199C170.176 2.57599 169.42 2.34799 168.436 2.34799C167.836 2.34799 167.224 2.43199 166.6 2.59999C166 2.74399 165.46 2.94799 164.98 3.21199C164.98 4.12399 164.992 5.22799 165.016 6.52399C165.064 7.81999 165.124 9.12799 165.196 10.448C165.268 11.768 165.34 12.992 165.412 14.12C165.508 15.248 165.616 16.088 165.736 16.64C165.856 17.264 166.144 17.684 166.6 17.9C167.08 18.116 167.668 18.224 168.364 18.224C168.532 18.224 168.724 18.212 168.94 18.188C169.156 18.164 169.372 18.128 169.588 18.08C169.804 18.032 170.008 17.972 170.2 17.9C170.392 17.828 170.536 17.756 170.632 17.684C170.8 16.796 170.944 15.752 171.064 14.552C171.184 13.328 171.28 12.116 171.352 10.916C171.424 9.69199 171.472 8.56399 171.496 7.53199ZM165.808 20.852C165.208 21.476 164.908 22.28 164.908 23.264C164.908 24.248 165.208 25.064 165.808 25.712C166.432 26.336 167.284 26.648 168.364 26.648C169.444 26.648 170.284 26.336 170.884 25.712C171.508 25.064 171.82 24.248 171.82 23.264C171.82 22.28 171.508 21.476 170.884 20.852C170.284 20.204 169.444 19.88 168.364 19.88C167.284 19.88 166.432 20.204 165.808 20.852Z" fill="white"/>
</svg>
