<svg width="50" height="50" viewBox="0 0 50 50" fill="none" xmlns="http://www.w3.org/2000/svg">
<path d="M25.6836 12.4883C23.5473 12.4884 21.4513 13.0704 19.6208 14.1717C17.7902 15.273 16.2942 16.8521 15.2933 18.7395C14.2924 20.6268 13.8245 22.7511 13.9397 24.8843C14.0549 27.0175 14.7489 29.0791 15.9473 30.8477L14.798 35.2817L19.4192 34.2035C20.962 35.1743 22.7093 35.7732 24.5233 35.9529C26.3372 36.1326 28.1681 35.8882 29.8714 35.2389C31.5747 34.5897 33.1038 33.5535 34.338 32.212C35.5721 30.8705 36.4775 29.2605 36.9828 27.5091C37.488 25.7577 37.5793 23.9128 37.2493 22.1201C36.9193 20.3274 36.1771 18.6359 35.0813 17.1792C33.9855 15.7225 32.5662 14.5405 30.9352 13.7264C29.3043 12.9123 27.5064 12.4884 25.6836 12.4883ZM31.4668 30.6705C29.8218 31.442 26.3873 31.0394 22.7691 27.943C19.1508 24.8465 18.2227 21.5152 18.7305 19.7709C19.2383 18.0266 21.2334 17.7043 21.6098 17.7876C21.9861 17.8709 23.8682 20.8546 23.6117 21.2026C23.3553 21.5507 22.1165 22.7896 22.1165 22.7896C22.1165 22.7896 22.0644 24.0571 24.3903 26.0478C26.7163 28.0384 27.9607 27.791 27.9607 27.791C27.9607 27.791 28.9933 26.375 29.2975 26.0685C29.6017 25.7619 32.8404 27.1604 32.9809 27.5193C33.1213 27.8783 33.1112 29.8993 31.4663 30.6705H31.4668Z" fill="white"/>
<path d="M25 0C11.1929 0 0 11.1929 0 25C0 38.8071 11.1929 50 25 50C38.8071 50 50 38.8071 50 25C50 11.1929 38.8071 0 25 0ZM25.6836 38.4718C23.3368 38.4752 21.026 37.8952 18.959 36.7841L11.3965 38.6719L13.312 31.2695C11.7685 28.5504 11.1639 25.3984 11.5917 22.301C12.0196 19.2037 13.4561 16.3337 15.6791 14.1348C17.902 11.936 20.7876 10.5309 23.8894 10.1368C26.9912 9.74269 30.1364 10.3816 32.8386 11.9547C35.5407 13.5278 37.6493 15.9474 38.8381 18.8394C40.0269 21.7313 40.2298 24.9343 39.4152 27.9531C38.6007 30.9719 36.8142 33.6381 34.332 35.5395C31.8498 37.4409 28.8103 38.4715 25.6836 38.4718Z" fill="white"/>
</svg>
